<?xml version="1.0" encoding="utf-8"?>
<!-- Generator: Adobe Illustrator 23.0.3, SVG Export Plug-In . SVG Version: 6.00 Build 0)  -->
<svg version="1.1" id="Layer_1" xmlns="http://www.w3.org/2000/svg" xmlns:xlink="http://www.w3.org/1999/xlink" x="0px" y="0px"
	 viewBox="0 0 54 54" style="enable-background:new 0 0 54 54;" xml:space="preserve">
<style type="text/css">
	.st0{fill:none;stroke:#1C3ED3;stroke-width:4;}
	.st1{fill-rule:evenodd;clip-rule:evenodd;fill:#1C3ED3;}
	.st2{fill:#1C3ED3;}
</style>
<title>logo-mobile</title>
<desc>Created with Sketch.</desc>
<g id="Page-1">
	<g id="logo-mobile">
		<rect id="Rectangle-6" x="2" y="2" class="st0" width="50" height="50"/>
		<path class="st1" d="M34.4,41.9c-0.5-0.5-0.7-1.2-0.7-1.9s0.2-1.4,0.7-1.9c0.5-0.5,1.1-0.8,1.7-0.8c0.7,0,1.3,0.3,1.7,0.8
			c0.5,0.5,0.7,1.2,0.7,1.9s-0.2,1.4-0.7,1.9s-1.1,0.8-1.7,0.8S34.9,42.4,34.4,41.9z"/>
	</g>
</g>
<g>
	<g>
		<path class="st2" d="M9.6,10.2h17v1.3H11.2v12.8h13v1.3h-13v14.9h15.9v1.3H9.6V10.2z"/>
	</g>
</g>
</svg>
